<svg width="64" height="48" viewBox="0 0 64 48" fill="none" xmlns="http://www.w3.org/2000/svg">
<g filter="url(#filter0_d_153_690)">
<path d="M16.5753 18.552C15.5673 18.552 14.6793 18.376 13.9113 18.024C13.1433 17.672 12.5513 17.184 12.1353 16.56C11.7193 15.92 11.5113 15.184 11.5113 14.352C11.5113 13.648 11.6553 13.008 11.9433 12.432C12.2473 11.856 12.6473 11.4 13.1433 11.064C13.6553 10.728 14.2153 10.56 14.8233 10.56C15.3833 10.56 15.8553 10.704 16.2393 10.992C16.6233 11.264 16.8633 11.648 16.9593 12.144C16.1273 12.144 15.4633 12.368 14.9673 12.816C14.4713 13.248 14.2233 13.84 14.2233 14.592C14.2233 15.28 14.4313 15.832 14.8473 16.248C15.2633 16.664 15.8153 16.872 16.5033 16.872C17.3513 16.872 18.0473 16.592 18.5913 16.032C19.1513 15.456 19.4313 14.736 19.4313 13.872C19.4313 13.12 19.2233 12.408 18.8073 11.736C18.3913 11.064 17.7673 10.248 16.9353 9.288C16.0713 8.296 15.4153 7.448 14.9673 6.744C14.5353 6.024 14.3193 5.24 14.3193 4.392C14.3193 3.56 14.5513 2.816 15.0153 2.16C15.4793 1.488 16.1193 0.960001 16.9353 0.576001C17.7513 0.192001 18.6713 0 19.6953 0C20.9913 0 22.0233 0.304001 22.7913 0.912001C23.5753 1.52 23.9673 2.336 23.9673 3.36C23.9673 4.032 23.7993 4.576 23.4633 4.992C23.1273 5.408 22.6873 5.616 22.1433 5.616C21.5353 5.616 21.0473 5.368 20.6793 4.872C20.9833 4.648 21.2233 4.352 21.3993 3.984C21.5753 3.616 21.6633 3.232 21.6633 2.832C21.6633 2.32 21.5113 1.912 21.2073 1.608C20.9033 1.304 20.4873 1.152 19.9593 1.152C19.3193 1.152 18.7913 1.384 18.3753 1.848C17.9753 2.296 17.7753 2.872 17.7753 3.576C17.7753 4.216 17.9593 4.816 18.3273 5.376C18.6953 5.92 19.2713 6.624 20.0553 7.488C20.6953 8.176 21.2073 8.768 21.5913 9.264C21.9913 9.76 22.3273 10.336 22.5993 10.992C22.8873 11.632 23.0313 12.328 23.0313 13.08C23.0313 14.104 22.7433 15.032 22.1673 15.864C21.6073 16.696 20.8313 17.352 19.8393 17.832C18.8633 18.312 17.7753 18.552 16.5753 18.552ZM26.7588 18.264C25.9908 18.264 25.3668 18.024 24.8868 17.544C24.4228 17.064 24.1908 16.344 24.1908 15.384C24.1908 14.984 24.2548 14.464 24.3828 13.824L26.0148 6.12H29.4708L27.7428 14.28C27.6948 14.52 27.6708 14.744 27.6708 14.952C27.6708 15.608 27.9108 15.936 28.3908 15.936C28.8388 15.936 29.2228 15.752 29.5428 15.384C29.8628 15 30.1188 14.48 30.3108 13.824L31.9428 6.12H35.3988L33.6708 14.28C33.6068 14.52 33.5748 14.776 33.5748 15.048C33.5748 15.368 33.6468 15.6 33.7908 15.744C33.9508 15.872 34.2068 15.936 34.5588 15.936C35.0068 15.936 35.3908 15.744 35.7108 15.36C36.0468 14.976 36.3108 14.464 36.5028 13.824H37.5108C36.9188 15.552 36.1828 16.728 35.3028 17.352C34.4388 17.96 33.5668 18.264 32.6868 18.264C31.9988 18.264 31.4468 18.072 31.0308 17.688C30.6308 17.304 30.3908 16.736 30.3108 15.984C29.7668 16.864 29.1908 17.464 28.5828 17.784C27.9908 18.104 27.3828 18.264 26.7588 18.264ZM38.132 6.12H41.588L41.276 7.608C41.82 7.128 42.308 6.76 42.74 6.504C43.188 6.248 43.668 6.12 44.18 6.12C44.692 6.12 45.092 6.296 45.38 6.648C45.684 7 45.836 7.424 45.836 7.92C45.836 8.384 45.684 8.792 45.38 9.144C45.076 9.496 44.652 9.672 44.108 9.672C43.756 9.672 43.516 9.592 43.388 9.432C43.276 9.256 43.188 9.008 43.124 8.688C43.076 8.48 43.028 8.328 42.98 8.232C42.932 8.136 42.844 8.088 42.716 8.088C42.38 8.088 42.092 8.16 41.852 8.304C41.628 8.432 41.332 8.664 40.964 9L39.044 18.12H35.588L38.132 6.12ZM43.3634 24.12C42.6114 24.12 41.9554 23.872 41.3954 23.376C40.8194 22.896 40.5314 22.28 40.5314 21.528C40.5314 20.84 40.7074 20.272 41.0594 19.824C41.4114 19.376 41.8674 19.016 42.4274 18.744C42.9874 18.488 43.7314 18.216 44.6594 17.928L47.5634 4.224C47.8834 2.688 48.4434 1.624 49.2434 1.032C50.0594 0.440001 50.9554 0.144001 51.9314 0.144001C52.6834 0.144001 53.3394 0.392001 53.8994 0.888001C54.4754 1.368 54.7634 1.984 54.7634 2.736C54.7634 3.104 54.7394 3.432 54.6914 3.72H53.5634C53.5954 3.368 53.6114 3.152 53.6114 3.072C53.6114 2.816 53.5234 2.616 53.3474 2.472C53.1714 2.328 52.9554 2.256 52.6994 2.256C52.3634 2.256 52.0354 2.408 51.7154 2.712C51.3954 3 51.1634 3.504 51.0194 4.224L50.6114 6.12H52.3634L52.1954 7.08H50.4194L47.6594 20.04C47.3394 21.592 46.7874 22.656 46.0034 23.232C45.2194 23.824 44.3394 24.12 43.3634 24.12ZM42.8114 21.984C43.4514 21.984 43.9074 21.36 44.1794 20.112L44.4914 18.72C43.6434 19.008 42.9954 19.336 42.5474 19.704C42.0834 20.088 41.8514 20.584 41.8514 21.192C41.8514 21.384 41.9474 21.56 42.1394 21.72C42.3314 21.896 42.5554 21.984 42.8114 21.984ZM7.36 39.264C6.272 39.264 5.44 39 4.864 38.472C4.288 37.928 4 37.168 4 36.192C4 35.712 4.056 35.256 4.168 34.824L6.73601 22.8L10.288 22.32L9.13601 27.72C9.58401 27.448 9.95201 27.272 10.24 27.192C10.528 27.096 10.816 27.048 11.104 27.048C12.992 27.048 13.936 28.416 13.936 31.152C13.936 32.256 13.72 33.44 13.288 34.704C12.872 35.952 12.168 37.024 11.176 37.92C10.2 38.816 8.928 39.264 7.36 39.264ZM8.70401 36.936C9.20001 36.936 9.66401 36.632 10.096 36.024C10.528 35.4 10.872 34.632 11.128 33.72C11.384 32.792 11.512 31.904 11.512 31.056C11.512 30.416 11.4 29.872 11.176 29.424C10.952 28.976 10.64 28.752 10.24 28.752C10 28.752 9.72801 28.792 9.42401 28.872C9.13601 28.936 8.93601 29.04 8.82401 29.184L7.504 35.28C7.456 35.472 7.432 35.656 7.432 35.832C7.432 36.568 7.85601 36.936 8.70401 36.936ZM18.336 39.216C17.152 39.216 16.216 38.912 15.528 38.304C14.84 37.696 14.496 36.736 14.496 35.424C14.496 34.336 14.72 33.128 15.168 31.8C15.616 30.472 16.336 29.328 17.328 28.368C18.32 27.392 19.568 26.904 21.072 26.904C23.12 26.904 24.144 28.184 24.144 30.744V30.768C24.192 30.784 24.28 30.792 24.408 30.792C24.936 30.792 25.544 30.656 26.232 30.384C26.92 30.096 27.544 29.752 28.104 29.352L28.32 30C27.856 30.496 27.248 30.92 26.496 31.272C25.76 31.608 24.952 31.848 24.072 31.992C23.944 33.448 23.616 34.72 23.088 35.808C22.56 36.896 21.88 37.736 21.048 38.328C20.216 38.92 19.312 39.216 18.336 39.216ZM19.296 37.056C19.68 37.056 20.064 36.84 20.448 36.408C20.832 35.96 21.168 35.36 21.456 34.608C21.744 33.84 21.952 32.992 22.08 32.064C21.648 31.968 21.432 31.632 21.432 31.056C21.432 30.4 21.68 29.968 22.176 29.76C22.144 29.232 22.064 28.872 21.936 28.68C21.808 28.472 21.584 28.368 21.264 28.368C20.736 28.368 20.224 28.752 19.728 29.52C19.232 30.288 18.832 31.208 18.528 32.28C18.224 33.352 18.072 34.296 18.072 35.112C18.072 35.88 18.16 36.4 18.336 36.672C18.512 36.928 18.832 37.056 19.296 37.056ZM28.2589 39.264C27.3469 39.264 26.5869 38.952 25.9789 38.328C25.3709 37.704 25.0669 36.728 25.0669 35.4C25.0669 34.216 25.2989 32.976 25.7629 31.68C26.2429 30.368 26.9469 29.264 27.8749 28.368C28.8189 27.456 29.9389 27 31.2349 27C31.8909 27 32.3789 27.112 32.6989 27.336C33.0189 27.56 33.1789 27.856 33.1789 28.224V28.392L33.4429 27.12H36.8989L35.1709 35.28C35.1069 35.52 35.0749 35.776 35.0749 36.048C35.0749 36.736 35.4029 37.08 36.0589 37.08C36.5069 37.08 36.8909 36.872 37.2109 36.456C37.5469 36.04 37.8109 35.496 38.0029 34.824H39.0109C38.4189 36.552 37.6829 37.728 36.8029 38.352C35.9389 38.96 35.0669 39.264 34.1869 39.264C33.5149 39.264 32.9709 39.08 32.5549 38.712C32.1549 38.328 31.9149 37.776 31.8349 37.056C31.3709 37.712 30.8509 38.248 30.2749 38.664C29.7149 39.064 29.0429 39.264 28.2589 39.264ZM29.8189 36.936C30.2189 36.936 30.6109 36.752 30.9949 36.384C31.3949 36 31.6669 35.48 31.8109 34.824L32.9629 29.4C32.9629 29.192 32.8829 28.992 32.7229 28.8C32.5629 28.592 32.3149 28.488 31.9789 28.488C31.3389 28.488 30.7629 28.864 30.2509 29.616C29.7389 30.352 29.3389 31.248 29.0509 32.304C28.7629 33.344 28.6189 34.264 28.6189 35.064C28.6189 35.864 28.7309 36.376 28.9549 36.6C29.1949 36.824 29.4829 36.936 29.8189 36.936ZM39.6437 27.12H43.0997L42.7877 28.608C43.3317 28.128 43.8197 27.76 44.2517 27.504C44.6997 27.248 45.1797 27.12 45.6917 27.12C46.2037 27.12 46.6037 27.296 46.8917 27.648C47.1957 28 47.3477 28.424 47.3477 28.92C47.3477 29.384 47.1957 29.792 46.8917 30.144C46.5877 30.496 46.1637 30.672 45.6197 30.672C45.2677 30.672 45.0277 30.592 44.8997 30.432C44.7877 30.256 44.6997 30.008 44.6357 29.688C44.5877 29.48 44.5397 29.328 44.4917 29.232C44.4437 29.136 44.3557 29.088 44.2277 29.088C43.8917 29.088 43.6037 29.16 43.3637 29.304C43.1397 29.432 42.8437 29.664 42.4757 30L40.5557 39.12H37.0997L39.6437 27.12ZM49.9152 39.264C49.0032 39.264 48.2432 38.952 47.6352 38.328C47.0272 37.704 46.7232 36.728 46.7232 35.4C46.7232 34.216 46.9552 32.976 47.4192 31.68C47.8992 30.368 48.6032 29.264 49.5312 28.368C50.4752 27.456 51.5952 27 52.8912 27C53.5472 27 54.0352 27.112 54.3552 27.336C54.6752 27.56 54.8352 27.856 54.8352 28.224V28.32L56.0112 22.8L59.5632 22.32L56.8032 35.28C56.7392 35.52 56.7072 35.752 56.7072 35.976C56.7072 36.616 57.0352 36.936 57.6912 36.936C57.9792 36.936 58.2352 36.888 58.4592 36.792C58.3952 37.592 58.1072 38.208 57.5952 38.64C57.0992 39.056 56.5072 39.264 55.8192 39.264C55.1792 39.264 54.6352 39.104 54.1872 38.784C53.7552 38.448 53.4672 37.944 53.3232 37.272C52.3632 38.6 51.2272 39.264 49.9152 39.264ZM51.4752 36.936C51.8272 36.936 52.1792 36.784 52.5312 36.48C52.8992 36.176 53.1712 35.752 53.3472 35.208L53.4432 34.824L54.6192 29.328C54.4752 28.768 54.1472 28.488 53.6352 28.488C52.9952 28.488 52.4192 28.864 51.9072 29.616C51.3952 30.352 50.9952 31.248 50.7072 32.304C50.4192 33.344 50.2752 34.264 50.2752 35.064C50.2752 35.864 50.3872 36.376 50.6112 36.6C50.8512 36.824 51.1392 36.936 51.4752 36.936Z" fill="white"/>
</g>
<defs>
<filter id="filter0_d_153_690" x="0" y="0" width="63.5632" height="47.264" filterUnits="userSpaceOnUse" color-interpolation-filters="sRGB">
<feFlood flood-opacity="0" result="BackgroundImageFix"/>
<feColorMatrix in="SourceAlpha" type="matrix" values="0 0 0 0 0 0 0 0 0 0 0 0 0 0 0 0 0 0 127 0" result="hardAlpha"/>
<feOffset dy="4"/>
<feGaussianBlur stdDeviation="2"/>
<feComposite in2="hardAlpha" operator="out"/>
<feColorMatrix type="matrix" values="0 0 0 0 0 0 0 0 0 0 0 0 0 0 0 0 0 0 0.25 0"/>
<feBlend mode="normal" in2="BackgroundImageFix" result="effect1_dropShadow_153_690"/>
<feBlend mode="normal" in="SourceGraphic" in2="effect1_dropShadow_153_690" result="shape"/>
</filter>
</defs>
</svg>
