<svg xmlns="http://www.w3.org/2000/svg">

<symbol id="phone" viewBox="0 0 12 12">
    <path d="M11.9741 9.29781C11.9401 9.19554 11.7242 9.04488 11.3264 8.84619C11.2186 8.78357 11.0651 8.69846 10.8664 8.59049C10.6675 8.48252 10.487 8.38303 10.3252 8.2921C10.163 8.20121 10.0111 8.11314 9.86919 8.02804C9.8465 8.011 9.77548 7.96135 9.65617 7.87879C9.53674 7.79646 9.43602 7.73535 9.35348 7.6955C9.27112 7.65589 9.19011 7.63595 9.11056 7.63595C8.99694 7.63595 8.85503 7.71696 8.68464 7.87879C8.51425 8.04082 8.35795 8.21682 8.21598 8.40733C8.07398 8.59775 7.92339 8.77375 7.76446 8.93569C7.60529 9.09769 7.47452 9.17861 7.37237 9.17861C7.32108 9.17861 7.25714 9.16432 7.18052 9.13611C7.10392 9.10772 7.04565 9.08339 7.00565 9.06378C6.96601 9.04375 6.89798 9.00411 6.80132 8.94425C6.70449 8.88458 6.65063 8.8519 6.63929 8.84619C5.86093 8.41428 5.19337 7.91995 4.63651 7.36332C4.07982 6.80636 3.58543 6.13887 3.15363 5.36041C3.14796 5.34904 3.11521 5.29504 3.0556 5.1985C2.9959 5.10188 2.95611 5.03379 2.93623 4.99391C2.91635 4.95417 2.8922 4.89591 2.86384 4.81922C2.83548 4.74253 2.82124 4.67865 2.82124 4.62746C2.82124 4.52525 2.90223 4.3945 3.06417 4.23539C3.22608 4.07638 3.40226 3.92575 3.59253 3.78381C3.78295 3.64187 3.95895 3.48557 4.12092 3.31518C4.28283 3.1447 4.36379 3.00273 4.36379 2.88912C4.36379 2.80963 4.34391 2.72858 4.30418 2.64622C4.26441 2.56368 4.20334 2.46297 4.12092 2.34359C4.03847 2.22428 3.98877 2.15332 3.9717 2.13049C3.88656 1.98855 3.79859 1.83658 3.70758 1.67464C3.61656 1.51272 3.51722 1.33225 3.40922 1.13341C3.30131 0.934661 3.21614 0.781198 3.15357 0.673257C2.95483 0.275613 2.80429 0.0596122 2.70199 0.0256419C2.6622 0.00859706 2.6025 0 2.52303 0C2.36954 0 2.1693 0.0283583 1.92216 0.0852542C1.67494 0.14206 1.4804 0.201643 1.33834 0.26424C1.05425 0.383494 0.753144 0.730063 0.434934 1.30383C0.145171 1.8378 0.000305176 2.36631 0.000305176 2.88897C0.000305176 3.04225 0.0102455 3.19139 0.0301262 3.3364C0.0500069 3.48127 0.0855294 3.64465 0.136724 3.8265C0.187828 4.00829 0.229052 4.14333 0.260217 4.23127C0.291411 4.31928 0.34965 4.47692 0.434904 4.70426C0.520039 4.93155 0.571233 5.07068 0.588278 5.12182C0.787115 5.67866 1.02291 6.17576 1.29559 6.61329C1.74425 7.34051 2.35652 8.09207 3.13205 8.86766C3.90761 9.64318 4.65901 10.2554 5.3863 10.7043C5.82376 10.9769 6.32105 11.2127 6.8778 11.4117C6.92896 11.4286 7.0681 11.4797 7.29529 11.5651C7.52258 11.6503 7.68028 11.7086 7.76828 11.7398C7.85631 11.7711 7.99139 11.8124 8.17303 11.8636C8.35506 11.9147 8.51828 11.9503 8.66315 11.9703C8.80811 11.9899 8.95727 12 9.11059 12C9.63321 12 10.1618 11.8551 10.6958 11.5653C11.2695 11.2473 11.616 10.9461 11.7353 10.6618C11.7981 10.5199 11.8575 10.3253 11.9143 10.0781C11.9713 9.83095 11.9996 9.63073 11.9996 9.47727C11.9998 9.39748 11.9912 9.33793 11.9741 9.29781Z"/>
</symbol>

<symbol id="vk" viewBox="0 0 20 12">
    <path d="M19.891 10.6049C19.891 10.5504 19.8365 10.4959 19.8365 10.4959C19.5095 9.89646 18.8011 9.07902 17.8202 8.20708C17.3842 7.77112 17.1117 7.49864 17.0027 7.33515C16.7847 7.06267 16.7302 6.79019 16.8392 6.51771C16.9482 6.29973 17.2207 5.86376 17.7657 5.15531C18.0381 4.77384 18.2561 4.50136 18.4196 4.28338C19.6185 2.703 20.1635 1.66757 20 1.23161L19.9455 1.12261C19.891 0.959126 19.782 0.90463 19.6185 0.850135C19.455 0.795639 19.2371 0.795639 18.9646 0.850135H15.9673C15.9128 0.850135 15.8583 0.850135 15.7493 0.850135C15.6403 0.850135 15.6403 0.904631 15.6403 0.904631H15.5858L15.5313 0.959127C15.4768 0.959127 15.4768 1.01362 15.4223 1.06812C15.3678 1.12261 15.3678 1.17711 15.3134 1.23161C14.9864 2.04904 14.6049 2.86648 14.2234 3.57493C13.951 4.0109 13.733 4.39237 13.515 4.71934C13.297 5.04632 13.1335 5.2643 12.97 5.42779C12.8065 5.59128 12.6975 5.70027 12.5886 5.80926C12.4796 5.91825 12.3706 5.91825 12.3161 5.91825C12.2616 5.91825 12.2071 5.86376 12.1526 5.86376C12.0436 5.80926 11.9891 5.70027 11.9346 5.59128C11.8801 5.48229 11.8256 5.3733 11.8256 5.20981C11.8256 5.04632 11.7711 4.88283 11.7711 4.77384C11.7711 4.66485 11.7711 4.50136 11.7711 4.28338C11.7711 4.06539 11.7711 3.90191 11.7711 3.84741C11.7711 3.57493 11.7711 3.30245 11.7711 2.97548C11.7711 2.6485 11.7711 2.43052 11.7711 2.26703C11.7711 2.10354 11.7711 1.88556 11.7711 1.66757C11.7711 1.44959 11.7711 1.2861 11.7166 1.17711C11.7166 1.06812 11.6621 0.959126 11.6076 0.850135C11.5531 0.741143 11.4986 0.632151 11.3896 0.577655C11.2807 0.523159 11.1717 0.468664 11.0627 0.414168C10.6812 0.305176 10.2452 0.305176 9.64578 0.305176C8.33788 0.305176 7.52044 0.359671 7.13896 0.577655C6.97548 0.632151 6.86648 0.741143 6.75749 0.904631C6.6485 1.06812 6.59401 1.12261 6.703 1.17711C7.13896 1.23161 7.41144 1.39509 7.57493 1.61308L7.62943 1.72207C7.68392 1.83106 7.73842 1.99455 7.79292 2.21253C7.84741 2.43052 7.84741 2.703 7.90191 2.97548C7.9564 3.46594 7.9564 3.90191 7.90191 4.28338C7.84741 4.66485 7.84741 4.93733 7.79292 5.10082C7.73842 5.3188 7.73842 5.48229 7.62943 5.59128C7.57493 5.70027 7.52044 5.80926 7.52044 5.80926C7.52044 5.86376 7.46594 5.86376 7.46594 5.86376C7.35695 5.91825 7.30245 5.91825 7.19346 5.91825C7.08447 5.91825 6.97548 5.86376 6.86649 5.75477C6.703 5.64577 6.59401 5.53678 6.43052 5.3733C6.26703 5.20981 6.10354 4.99182 5.94005 4.66485C5.77657 4.33787 5.55858 4.0109 5.3406 3.57493L5.17711 3.24795C5.06812 3.02997 4.90463 2.75749 4.74114 2.37602C4.57766 1.99455 4.41417 1.66757 4.25068 1.2861C4.19619 1.17711 4.08719 1.06812 3.9782 0.959127H3.92371C3.86921 0.904631 3.81471 0.90463 3.76022 0.850135C3.70572 0.850135 3.59673 0.795639 3.54223 0.795639H0.708447C0.381471 0.795639 0.163488 0.904631 0.0544959 1.01362V1.06812C0 1.12261 0 1.17711 0 1.23161C0 1.2861 0 1.39509 0.0544959 1.50409C0.490463 2.48501 0.92643 3.41144 1.41689 4.33787C1.90736 5.2643 2.34332 5.97275 2.6703 6.51771C3.05177 7.06267 3.37875 7.60763 3.76022 8.09809C4.14169 8.58855 4.35967 8.91553 4.52316 9.02452C4.63215 9.18801 4.74114 9.2425 4.79564 9.3515L5.06812 9.62398C5.23161 9.78746 5.50409 10.0054 5.77657 10.2234C6.10354 10.4414 6.43052 10.6594 6.86649 10.9319C7.24796 11.1499 7.73842 11.3678 8.22888 11.4768C8.77384 11.6403 9.2643 11.6948 9.75477 11.6403H10.9537C11.1717 11.6403 11.3896 11.5313 11.4986 11.4223L11.5531 11.3678C11.6076 11.3133 11.6076 11.2589 11.6076 11.1499C11.6076 11.0409 11.6621 10.9864 11.6621 10.8774C11.6621 10.6049 11.6621 10.3324 11.7166 10.0599C11.7711 9.84196 11.8256 9.62398 11.8801 9.51498C11.9346 9.40599 12.0436 9.297 12.0981 9.18801C12.2071 9.07902 12.2616 9.07902 12.2616 9.02452C12.3161 9.02452 12.3161 8.97002 12.3706 8.97002C12.5341 8.91553 12.752 8.97003 12.97 9.13351C13.188 9.297 13.406 9.51498 13.624 9.73297C13.842 9.95095 14.0599 10.2234 14.3324 10.5504C14.6049 10.8229 14.8774 11.0954 15.0409 11.2044L15.2589 11.3133C15.4223 11.4223 15.5858 11.4768 15.8038 11.5313C16.0218 11.5858 16.2398 11.6403 16.4033 11.5858L19.0736 11.5313C19.346 11.5313 19.564 11.4768 19.673 11.4223C19.8365 11.3133 19.891 11.2589 19.9455 11.1499C20 11.0409 20 10.9319 19.9455 10.7684C19.9455 10.7684 19.9455 10.6594 19.891 10.6049Z"/>
</symbol>

<symbol id="fb" viewBox="0 0 20 20">
    <path d="M20 18.9101C20 19.5095 19.5095 20 18.9101 20H13.7875V12.2616H16.4033L16.7847 9.26431H13.7875V7.35695C13.7875 6.48501 14.0054 5.88556 15.2589 5.88556H16.8392V3.16076C16.5668 3.10627 15.6403 3.05177 14.4959 3.05177C12.2071 3.05177 10.6267 4.46866 10.6267 7.02997V9.26431H8.0109V12.2616H10.6267V20H1.08992C0.490463 20 0 19.5095 0 18.9101V1.08992C0 0.490463 0.490463 0 1.08992 0H18.9101C19.5095 0 20 0.490463 20 1.08992V18.9101Z"/>
</symbol>

<symbol id="in" viewBox="0 0 20 20">
    <path d="M17.6022 0H2.39782C1.08992 0 0 1.03542 0 2.34332V17.6567C0 18.9646 1.08992 20 2.39782 20H17.6022C18.9101 20 20 18.9646 20 17.6567V2.34332C20 1.03542 18.9101 0 17.6022 0ZM14.3869 3.10627C14.3869 2.77929 14.6594 2.50681 14.9864 2.50681H16.8937C17.2207 2.50681 17.4932 2.77929 17.4932 3.10627V4.95913C17.4932 5.2861 17.2207 5.55858 16.8937 5.55858H15.0409C14.7139 5.55858 14.4414 5.2861 14.4414 4.95913L14.3869 3.10627ZM10.0272 6.15804C12.1526 6.15804 13.8965 7.84741 13.8965 9.97275C13.8965 12.0981 12.1526 13.7875 10.0272 13.7875C7.90191 13.7875 6.15804 12.0981 6.15804 9.97275C6.15804 7.90191 7.90191 6.15804 10.0272 6.15804ZM18.0926 17.4932C18.0926 17.8202 17.8202 18.0926 17.4932 18.0926H2.50681C2.17984 18.0926 1.90736 17.8202 1.90736 17.4932V8.11989H4.35967C4.0327 8.61035 3.92371 9.48229 3.92371 10.0272C3.92371 13.3515 6.6485 16.0763 10.0272 16.0763C13.406 16.0763 16.1308 13.3515 16.1308 10.0272C16.1308 9.48229 16.0763 8.61035 15.6403 8.11989H18.1471L18.0926 17.4932Z"/>
</symbol>

<symbol id="tw" viewBox="0 0 20 18">
    <path d="M19.455 1.01613C18.6376 1.5066 17.7657 1.83357 16.8392 2.05155C16.0763 1.23412 15.0409 0.743652 13.842 0.743652C11.5531 0.743652 9.75477 2.65101 9.75477 4.93984C9.75477 5.26681 9.80926 5.59379 9.86376 5.92076C6.43052 5.70278 3.43324 4.01341 1.41689 1.4521C1.08992 2.05155 0.871935 2.8145 0.871935 3.57744C0.871935 5.04883 1.58038 6.30224 2.7248 7.06518C2.07084 7.06518 1.41689 6.84719 0.871935 6.52022V6.62921C0.871935 8.64556 2.28883 10.3894 4.14169 10.7709C3.81471 10.8799 3.43324 10.9344 3.05177 10.9344C2.77929 10.9344 2.50681 10.9344 2.28883 10.8799C2.83379 12.5693 4.30518 13.7682 6.10354 13.8227C4.68665 14.9671 2.94278 15.621 0.980926 15.621C0.653951 15.621 0.326975 15.621 0 15.5665C1.79837 16.7655 3.9782 17.4739 6.26703 17.4739C13.842 17.4739 17.9292 11.0434 17.9292 5.4848C17.9292 5.32131 17.9292 5.10333 17.9292 4.93984C18.7466 4.34038 19.455 3.63194 20 2.76C19.2916 3.08698 18.4741 3.30496 17.6567 3.41395C18.4741 2.8145 19.1281 1.99706 19.455 1.01613Z"/>
</symbol>

<symbol id="logo" viewBox="0 0 64 48">
    <g filter="url(#filter0_d_153_690)">
    <path d="M16.5753 18.552C15.5673 18.552 14.6793 18.376 13.9113 18.024C13.1433 17.672 12.5513 17.184 12.1353 16.56C11.7193 15.92 11.5113 15.184 11.5113 14.352C11.5113 13.648 11.6553 13.008 11.9433 12.432C12.2473 11.856 12.6473 11.4 13.1433 11.064C13.6553 10.728 14.2153 10.56 14.8233 10.56C15.3833 10.56 15.8553 10.704 16.2393 10.992C16.6233 11.264 16.8633 11.648 16.9593 12.144C16.1273 12.144 15.4633 12.368 14.9673 12.816C14.4713 13.248 14.2233 13.84 14.2233 14.592C14.2233 15.28 14.4313 15.832 14.8473 16.248C15.2633 16.664 15.8153 16.872 16.5033 16.872C17.3513 16.872 18.0473 16.592 18.5913 16.032C19.1513 15.456 19.4313 14.736 19.4313 13.872C19.4313 13.12 19.2233 12.408 18.8073 11.736C18.3913 11.064 17.7673 10.248 16.9353 9.288C16.0713 8.296 15.4153 7.448 14.9673 6.744C14.5353 6.024 14.3193 5.24 14.3193 4.392C14.3193 3.56 14.5513 2.816 15.0153 2.16C15.4793 1.488 16.1193 0.960001 16.9353 0.576001C17.7513 0.192001 18.6713 0 19.6953 0C20.9913 0 22.0233 0.304001 22.7913 0.912001C23.5753 1.52 23.9673 2.336 23.9673 3.36C23.9673 4.032 23.7993 4.576 23.4633 4.992C23.1273 5.408 22.6873 5.616 22.1433 5.616C21.5353 5.616 21.0473 5.368 20.6793 4.872C20.9833 4.648 21.2233 4.352 21.3993 3.984C21.5753 3.616 21.6633 3.232 21.6633 2.832C21.6633 2.32 21.5113 1.912 21.2073 1.608C20.9033 1.304 20.4873 1.152 19.9593 1.152C19.3193 1.152 18.7913 1.384 18.3753 1.848C17.9753 2.296 17.7753 2.872 17.7753 3.576C17.7753 4.216 17.9593 4.816 18.3273 5.376C18.6953 5.92 19.2713 6.624 20.0553 7.488C20.6953 8.176 21.2073 8.768 21.5913 9.264C21.9913 9.76 22.3273 10.336 22.5993 10.992C22.8873 11.632 23.0313 12.328 23.0313 13.08C23.0313 14.104 22.7433 15.032 22.1673 15.864C21.6073 16.696 20.8313 17.352 19.8393 17.832C18.8633 18.312 17.7753 18.552 16.5753 18.552ZM26.7588 18.264C25.9908 18.264 25.3668 18.024 24.8868 17.544C24.4228 17.064 24.1908 16.344 24.1908 15.384C24.1908 14.984 24.2548 14.464 24.3828 13.824L26.0148 6.12H29.4708L27.7428 14.28C27.6948 14.52 27.6708 14.744 27.6708 14.952C27.6708 15.608 27.9108 15.936 28.3908 15.936C28.8388 15.936 29.2228 15.752 29.5428 15.384C29.8628 15 30.1188 14.48 30.3108 13.824L31.9428 6.12H35.3988L33.6708 14.28C33.6068 14.52 33.5748 14.776 33.5748 15.048C33.5748 15.368 33.6468 15.6 33.7908 15.744C33.9508 15.872 34.2068 15.936 34.5588 15.936C35.0068 15.936 35.3908 15.744 35.7108 15.36C36.0468 14.976 36.3108 14.464 36.5028 13.824H37.5108C36.9188 15.552 36.1828 16.728 35.3028 17.352C34.4388 17.96 33.5668 18.264 32.6868 18.264C31.9988 18.264 31.4468 18.072 31.0308 17.688C30.6308 17.304 30.3908 16.736 30.3108 15.984C29.7668 16.864 29.1908 17.464 28.5828 17.784C27.9908 18.104 27.3828 18.264 26.7588 18.264ZM38.132 6.12H41.588L41.276 7.608C41.82 7.128 42.308 6.76 42.74 6.504C43.188 6.248 43.668 6.12 44.18 6.12C44.692 6.12 45.092 6.296 45.38 6.648C45.684 7 45.836 7.424 45.836 7.92C45.836 8.384 45.684 8.792 45.38 9.144C45.076 9.496 44.652 9.672 44.108 9.672C43.756 9.672 43.516 9.592 43.388 9.432C43.276 9.256 43.188 9.008 43.124 8.688C43.076 8.48 43.028 8.328 42.98 8.232C42.932 8.136 42.844 8.088 42.716 8.088C42.38 8.088 42.092 8.16 41.852 8.304C41.628 8.432 41.332 8.664 40.964 9L39.044 18.12H35.588L38.132 6.12ZM43.3634 24.12C42.6114 24.12 41.9554 23.872 41.3954 23.376C40.8194 22.896 40.5314 22.28 40.5314 21.528C40.5314 20.84 40.7074 20.272 41.0594 19.824C41.4114 19.376 41.8674 19.016 42.4274 18.744C42.9874 18.488 43.7314 18.216 44.6594 17.928L47.5634 4.224C47.8834 2.688 48.4434 1.624 49.2434 1.032C50.0594 0.440001 50.9554 0.144001 51.9314 0.144001C52.6834 0.144001 53.3394 0.392001 53.8994 0.888001C54.4754 1.368 54.7634 1.984 54.7634 2.736C54.7634 3.104 54.7394 3.432 54.6914 3.72H53.5634C53.5954 3.368 53.6114 3.152 53.6114 3.072C53.6114 2.816 53.5234 2.616 53.3474 2.472C53.1714 2.328 52.9554 2.256 52.6994 2.256C52.3634 2.256 52.0354 2.408 51.7154 2.712C51.3954 3 51.1634 3.504 51.0194 4.224L50.6114 6.12H52.3634L52.1954 7.08H50.4194L47.6594 20.04C47.3394 21.592 46.7874 22.656 46.0034 23.232C45.2194 23.824 44.3394 24.12 43.3634 24.12ZM42.8114 21.984C43.4514 21.984 43.9074 21.36 44.1794 20.112L44.4914 18.72C43.6434 19.008 42.9954 19.336 42.5474 19.704C42.0834 20.088 41.8514 20.584 41.8514 21.192C41.8514 21.384 41.9474 21.56 42.1394 21.72C42.3314 21.896 42.5554 21.984 42.8114 21.984ZM7.36 39.264C6.272 39.264 5.44 39 4.864 38.472C4.288 37.928 4 37.168 4 36.192C4 35.712 4.056 35.256 4.168 34.824L6.73601 22.8L10.288 22.32L9.13601 27.72C9.58401 27.448 9.952 27.272 10.24 27.192C10.528 27.096 10.816 27.048 11.104 27.048C12.992 27.048 13.936 28.416 13.936 31.152C13.936 32.256 13.72 33.44 13.288 34.704C12.872 35.952 12.168 37.024 11.176 37.92C10.2 38.816 8.928 39.264 7.36 39.264ZM8.70401 36.936C9.20001 36.936 9.66401 36.632 10.096 36.024C10.528 35.4 10.872 34.632 11.128 33.72C11.384 32.792 11.512 31.904 11.512 31.056C11.512 30.416 11.4 29.872 11.176 29.424C10.952 28.976 10.64 28.752 10.24 28.752C10 28.752 9.728 28.792 9.42401 28.872C9.136 28.936 8.93601 29.04 8.82401 29.184L7.504 35.28C7.456 35.472 7.432 35.656 7.432 35.832C7.432 36.568 7.85601 36.936 8.70401 36.936ZM18.336 39.216C17.152 39.216 16.216 38.912 15.528 38.304C14.84 37.696 14.496 36.736 14.496 35.424C14.496 34.336 14.72 33.128 15.168 31.8C15.616 30.472 16.336 29.328 17.328 28.368C18.32 27.392 19.568 26.904 21.072 26.904C23.12 26.904 24.144 28.184 24.144 30.744V30.768C24.192 30.784 24.28 30.792 24.408 30.792C24.936 30.792 25.544 30.656 26.232 30.384C26.92 30.096 27.544 29.752 28.104 29.352L28.32 30C27.856 30.496 27.248 30.92 26.496 31.272C25.76 31.608 24.952 31.848 24.072 31.992C23.944 33.448 23.616 34.72 23.088 35.808C22.56 36.896 21.88 37.736 21.048 38.328C20.216 38.92 19.312 39.216 18.336 39.216ZM19.296 37.056C19.68 37.056 20.064 36.84 20.448 36.408C20.832 35.96 21.168 35.36 21.456 34.608C21.744 33.84 21.952 32.992 22.08 32.064C21.648 31.968 21.432 31.632 21.432 31.056C21.432 30.4 21.68 29.968 22.176 29.76C22.144 29.232 22.064 28.872 21.936 28.68C21.808 28.472 21.584 28.368 21.264 28.368C20.736 28.368 20.224 28.752 19.728 29.52C19.232 30.288 18.832 31.208 18.528 32.28C18.224 33.352 18.072 34.296 18.072 35.112C18.072 35.88 18.16 36.4 18.336 36.672C18.512 36.928 18.832 37.056 19.296 37.056ZM28.2589 39.264C27.3469 39.264 26.5869 38.952 25.9789 38.328C25.3709 37.704 25.0669 36.728 25.0669 35.4C25.0669 34.216 25.2989 32.976 25.7629 31.68C26.2429 30.368 26.9469 29.264 27.8749 28.368C28.8189 27.456 29.9389 27 31.2349 27C31.8909 27 32.3789 27.112 32.6989 27.336C33.0189 27.56 33.1789 27.856 33.1789 28.224V28.392L33.4429 27.12H36.8989L35.1709 35.28C35.1069 35.52 35.0749 35.776 35.0749 36.048C35.0749 36.736 35.4029 37.08 36.0589 37.08C36.5069 37.08 36.8909 36.872 37.2109 36.456C37.5469 36.04 37.8109 35.496 38.0029 34.824H39.0109C38.4189 36.552 37.6829 37.728 36.8029 38.352C35.9389 38.96 35.0669 39.264 34.1869 39.264C33.5149 39.264 32.9709 39.08 32.5549 38.712C32.1549 38.328 31.9149 37.776 31.8349 37.056C31.3709 37.712 30.8509 38.248 30.2749 38.664C29.7149 39.064 29.0429 39.264 28.2589 39.264ZM29.8189 36.936C30.2189 36.936 30.6109 36.752 30.9949 36.384C31.3949 36 31.6669 35.48 31.8109 34.824L32.9629 29.4C32.9629 29.192 32.8829 28.992 32.7229 28.8C32.5629 28.592 32.3149 28.488 31.9789 28.488C31.3389 28.488 30.7629 28.864 30.2509 29.616C29.7389 30.352 29.3389 31.248 29.0509 32.304C28.7629 33.344 28.6189 34.264 28.6189 35.064C28.6189 35.864 28.7309 36.376 28.9549 36.6C29.1949 36.824 29.4829 36.936 29.8189 36.936ZM39.6437 27.12H43.0997L42.7877 28.608C43.3317 28.128 43.8197 27.76 44.2517 27.504C44.6997 27.248 45.1797 27.12 45.6917 27.12C46.2037 27.12 46.6037 27.296 46.8917 27.648C47.1957 28 47.3477 28.424 47.3477 28.92C47.3477 29.384 47.1957 29.792 46.8917 30.144C46.5877 30.496 46.1637 30.672 45.6197 30.672C45.2677 30.672 45.0277 30.592 44.8997 30.432C44.7877 30.256 44.6997 30.008 44.6357 29.688C44.5877 29.48 44.5397 29.328 44.4917 29.232C44.4437 29.136 44.3557 29.088 44.2277 29.088C43.8917 29.088 43.6037 29.16 43.3637 29.304C43.1397 29.432 42.8437 29.664 42.4757 30L40.5557 39.12H37.0997L39.6437 27.12ZM49.9152 39.264C49.0032 39.264 48.2432 38.952 47.6352 38.328C47.0272 37.704 46.7232 36.728 46.7232 35.4C46.7232 34.216 46.9552 32.976 47.4192 31.68C47.8992 30.368 48.6032 29.264 49.5312 28.368C50.4752 27.456 51.5952 27 52.8912 27C53.5472 27 54.0352 27.112 54.3552 27.336C54.6752 27.56 54.8352 27.856 54.8352 28.224V28.32L56.0112 22.8L59.5632 22.32L56.8032 35.28C56.7392 35.52 56.7072 35.752 56.7072 35.976C56.7072 36.616 57.0352 36.936 57.6912 36.936C57.9792 36.936 58.2352 36.888 58.4592 36.792C58.3952 37.592 58.1072 38.208 57.5952 38.64C57.0992 39.056 56.5072 39.264 55.8192 39.264C55.1792 39.264 54.6352 39.104 54.1872 38.784C53.7552 38.448 53.4672 37.944 53.3232 37.272C52.3632 38.6 51.2272 39.264 49.9152 39.264ZM51.4752 36.936C51.8272 36.936 52.1792 36.784 52.5312 36.48C52.8992 36.176 53.1712 35.752 53.3472 35.208L53.4432 34.824L54.6192 29.328C54.4752 28.768 54.1472 28.488 53.6352 28.488C52.9952 28.488 52.4192 28.864 51.9072 29.616C51.3952 30.352 50.9952 31.248 50.7072 32.304C50.4192 33.344 50.2752 34.264 50.2752 35.064C50.2752 35.864 50.3872 36.376 50.6112 36.6C50.8512 36.824 51.1392 36.936 51.4752 36.936Z"/>
    </g>
    <defs>
    <filter id="filter0_d_153_690" x="0" y="0" width="63.5632" height="47.264" filterUnits="userSpaceOnUse" color-interpolation-filters="sRGB">
    <feFlood flood-opacity="0" result="BackgroundImageFix"/>
    <feColorMatrix in="SourceAlpha" type="matrix" values="0 0 0 0 0 0 0 0 0 0 0 0 0 0 0 0 0 0 127 0" result="hardAlpha"/>
    <feOffset dy="4"/>
    <feGaussianBlur stdDeviation="2"/>
    <feComposite in2="hardAlpha" operator="out"/>
    <feColorMatrix type="matrix" values="0 0 0 0 0 0 0 0 0 0 0 0 0 0 0 0 0 0 0.25 0"/>
    <feBlend mode="normal" in2="BackgroundImageFix" result="effect1_dropShadow_153_690"/>
    <feBlend mode="normal" in="SourceGraphic" in2="effect1_dropShadow_153_690" result="shape"/>
    </filter>
    </defs>
</symbol>

<symbol id="design" viewBox="0 0 35 35">
    <path d="M34.5485 0.451516C34.3352 0.238139 34.0379 0.130367 33.7376 0.15814C33.6123 0.16952 30.6209 0.454022 26.5183 1.83108C13.1663 5.94322 4.32974 18.8899 0.220651 28.2558C-0.0379964 28.8743 0.484582 29.7021 1.26676 29.6337L5.80535 29.1922L5.36386 33.7304C5.31549 34.3828 5.94883 35.0699 6.74184 34.7764C23.0466 27.3472 32.9919 15.976 34.8419 1.26228C34.8694 0.961858 34.7619 0.664757 34.5485 0.451516ZM21.4105 22.7881C19.6089 24.4277 17.8329 25.8372 16.1913 27.0245V9.72113C17.9122 8.31082 19.6957 7.16773 21.4105 6.24486V22.7881ZM11.4936 30.0991C9.88016 31.0471 8.5183 31.7389 7.55511 32.1956L7.94776 28.1597C8.00602 27.6346 7.52022 26.9703 6.83797 27.05L2.8034 27.4424C4.16641 24.5507 7.83733 17.8176 14.159 11.5514V28.4322C13.1849 29.0781 12.286 29.6336 11.4936 30.0991ZM31.2232 7.89084C30.0298 11.4275 27.7123 16.5335 23.4428 20.8442V5.2325C26.2239 3.88932 30.4729 2.68533 32.6337 2.36608C32.4266 3.57955 32.0109 5.55616 31.2232 7.89084Z"/>
</symbol>

<symbol id="matherials" viewBox="0 0 35 35">
    <path d="M33.8298 12.4181H26.5562C26.5569 12.4117 26.5579 12.4054 26.5586 12.3991C27.405 11.6708 28.0815 10.8061 28.5729 9.82357C28.7304 9.50849 28.7136 9.13433 28.5284 8.8347C28.3432 8.53501 28.016 8.3526 27.6638 8.3526H26.0949C25.7545 7.38962 25.2576 6.50036 24.6109 5.69742C24.6938 4.58516 24.5607 3.4969 24.2137 2.45599C24.1023 2.12181 23.8258 1.86914 23.483 1.78823C23.1401 1.70726 22.7799 1.80971 22.5308 2.05872L21.4191 3.17037C20.5006 2.73129 19.5227 2.45416 18.4992 2.34311C17.7321 1.43955 16.848 0.724357 15.9218 0.261161C15.6067 0.103623 15.2326 0.120427 14.9328 0.30561C14.6333 0.490794 14.4509 0.817932 14.4509 1.17021V2.80684C13.4879 3.14719 12.5986 3.6442 11.7957 4.29082C10.6836 4.20795 9.59509 4.3411 8.55439 4.68809C8.22021 4.79948 7.96754 5.07601 7.88663 5.4188C7.80573 5.76159 7.90804 6.12192 8.15712 6.37094L9.26857 7.48245C8.82922 8.40159 8.55195 9.38016 8.4411 10.4045C7.76013 10.9905 7.18933 11.665 6.73623 12.4182H1.17022C0.608905 12.4182 0.153839 12.8732 0.153839 13.4345V17.5001C0.153839 18.0614 0.608905 18.5164 1.17022 18.5164H2.25435V33.8298C2.25435 34.3911 2.70942 34.8462 3.27073 34.8462H7.33623C7.89754 34.8462 8.35261 34.3911 8.35261 33.8298V30.3847L17.5 26.7258L26.6474 30.3847V33.8298C26.6474 34.3911 27.1024 34.8461 27.6638 34.8461H31.7293C32.2906 34.8461 32.7456 34.3911 32.7456 33.8298V18.5164H33.8298C34.3911 18.5164 34.8461 18.0613 34.8461 17.5V13.4345C34.8461 12.8732 34.3911 12.4181 33.8298 12.4181V12.4181ZM10.0399 11.7226C10.2717 11.5431 10.4147 11.2723 10.4322 10.9796C10.5 9.84511 10.8237 8.77921 11.3944 7.81155C11.6298 7.41232 11.5652 6.90433 11.2376 6.57658L10.9639 6.30291C11.3037 6.29247 11.6479 6.30921 11.9952 6.35318C12.286 6.39004 12.5787 6.29952 12.798 6.10471C13.6472 5.35029 14.631 4.82455 15.722 4.542C16.1704 4.426 16.4836 4.02141 16.4836 3.55822V3.15607C16.7255 3.39404 16.9585 3.65687 17.179 3.94173C17.3585 4.17353 17.6293 4.3165 17.922 4.33398C19.0564 4.40174 20.1223 4.72549 21.0901 5.29615C21.4894 5.53155 21.9973 5.46704 22.325 5.13936L22.5988 4.86562C22.6092 5.20542 22.5925 5.5497 22.5485 5.89697C22.5117 6.18785 22.6022 6.4805 22.797 6.69977C23.5514 7.54905 24.0772 8.53284 24.3597 9.62382C24.4758 10.0722 24.8804 10.3854 25.3436 10.3854H25.7272C25.4937 10.6338 25.2377 10.8659 24.9602 11.0808C24.7284 11.2603 24.5854 11.5311 24.5679 11.8238C24.556 12.023 24.5354 12.2214 24.5072 12.4182H20.3743C20.4871 12.1 20.5491 11.7581 20.5491 11.4018C20.5491 9.72051 19.1813 8.35267 17.5 8.35267C15.8187 8.35267 14.4509 9.72051 14.4509 11.4018C14.4509 11.7581 14.5129 12.1 14.6257 12.4182H9.27331C9.50687 12.1698 9.76239 11.9375 10.0399 11.7226ZM18.5164 11.4017C18.5164 11.9622 18.0604 12.4181 17.5 12.4181C16.9396 12.4181 16.4836 11.9622 16.4836 11.4017C16.4836 10.8413 16.9396 10.3854 17.5 10.3854C18.0604 10.3854 18.5164 10.8413 18.5164 11.4017ZM6.31985 32.8134H4.2871V18.5164H6.31985C6.31985 18.5094 6.31992 28.5516 6.31985 32.8134ZM8.35261 28.1953V23.0667L14.7633 25.631L8.35261 28.1953ZM26.6474 28.1953L20.2367 25.631L26.6474 23.0667V28.1953ZM26.6474 20.8774L17.5 24.5364L8.35261 20.8774V18.5164H26.6474V20.8774ZM30.7129 32.8134H28.6801C28.6801 31.0105 28.6801 20.6905 28.6801 18.5164H30.7129V32.8134ZM32.8134 16.4836H2.18659V14.4509H32.8134V16.4836Z"/>
</symbol>

<symbol id="shipping" viewBox="0 0 35 25">
    <path d="M26.3553 15.9785C23.944 15.9785 21.9823 17.9402 21.9823 20.3515C21.9823 22.7628 23.944 24.7245 26.3553 24.7245C28.767 24.7245 30.7283 22.7628 30.7283 20.3515C30.7283 17.9402 28.7666 15.9785 26.3553 15.9785ZM26.3553 22.538C25.1495 22.538 24.1688 21.5573 24.1688 20.3515C24.1688 19.1456 25.1495 18.165 26.3553 18.165C27.5611 18.165 28.5418 19.1456 28.5418 20.3515C28.5418 21.5574 27.5611 22.538 26.3553 22.538Z"/>
    <path d="M11.4143 15.9785C9.00296 15.9785 7.04129 17.9402 7.04129 20.3515C7.04129 22.7628 9.00296 24.7245 11.4143 24.7245C13.8256 24.7245 15.7873 22.7628 15.7873 20.3515C15.7873 17.9402 13.8256 15.9785 11.4143 15.9785ZM11.4143 22.538C10.2085 22.538 9.22778 21.5573 9.22778 20.3515C9.22778 19.1456 10.2085 18.165 11.4143 18.165C12.6198 18.165 13.6008 19.1456 13.6008 20.3515C13.6008 21.5574 12.6201 22.538 11.4143 22.538Z"/>
    <path d="M29.3001 3.4616C29.1143 3.09245 28.7364 2.85956 28.3231 2.85956H22.5654V5.04606H27.6489L30.6258 10.9671L32.5798 9.98456L29.3001 3.4616Z"/>
    <path d="M23.0756 19.2947H14.8034V21.4812H23.0756V19.2947Z"/>
    <path d="M8.1345 19.2947H4.34464C3.74078 19.2947 3.25143 19.7841 3.25143 20.3879C3.25143 20.9918 3.74084 21.4811 4.34464 21.4811H8.13457C8.73843 21.4811 9.22779 20.9917 9.22779 20.3879C9.22779 19.7841 8.73837 19.2947 8.1345 19.2947Z"/>
    <path d="M34.6166 12.6113L32.4662 9.84173C32.2596 9.57497 31.9407 9.41898 31.6029 9.41898H23.6586V1.76628C23.6586 1.16242 23.1692 0.673065 22.5654 0.673065H4.34464C3.74078 0.673065 3.25143 1.16248 3.25143 1.76628C3.25143 2.37007 3.74084 2.85949 4.34464 2.85949H21.4721V10.5122C21.4721 11.1161 21.9616 11.6054 22.5654 11.6054H31.0675L32.6597 13.6563V19.2946H29.635C29.0311 19.2946 28.5418 19.784 28.5418 20.3878C28.5418 20.9917 29.0312 21.481 29.635 21.481H33.7529C34.3567 21.481 34.8461 20.9916 34.8462 20.3878V13.2818C34.8462 13.0391 34.7653 12.803 34.6166 12.6113Z"/>
    <path d="M8.06166 13.7556H3.0327C2.42884 13.7556 1.93949 14.245 1.93949 14.8488C1.93949 15.4527 2.42891 15.942 3.0327 15.942H8.0616C8.66546 15.942 9.15481 15.4526 9.15481 14.8488C9.15488 14.245 8.66546 13.7556 8.06166 13.7556Z"/>
    <path d="M10.5761 9.45544H1.24706C0.643266 9.45544 0.153847 9.94486 0.153847 10.5487C0.153847 11.1526 0.643266 11.6419 1.24706 11.6419H10.5761C11.18 11.6419 11.6693 11.1525 11.6693 10.5487C11.6693 9.94493 11.18 9.45544 10.5761 9.45544Z"/>
    <path d="M12.3617 5.15536H3.0327C2.42884 5.15536 1.93949 5.64478 1.93949 6.24857C1.93949 6.85244 2.42891 7.34179 3.0327 7.34179H12.3617C12.9656 7.34179 13.455 6.85237 13.455 6.24857C13.455 5.64478 12.9656 5.15536 12.3617 5.15536Z"/>
</symbol>

<symbol id="perfectfit" viewBox="0 0 44 68">
    <path d="M41.8359 60.0312H35.8594V55.7812H38.5223C39.6225 55.7812 40.5145 54.8893 40.5145 53.7891C40.5145 52.6888 39.6225 51.7969 38.5223 51.7969H35.8594V47.8125H41.1785C42.2787 47.8125 43.1707 46.9205 43.1707 45.8203C43.1707 44.7201 42.2787 43.8281 41.1785 43.8281H35.8594V39.8438H38.5223C39.6225 39.8438 40.5145 38.9518 40.5145 37.8516C40.5145 36.7513 39.6225 35.8594 38.5223 35.8594H35.8594V31.875H41.1785C42.2787 31.875 43.1707 30.983 43.1707 29.8828C43.1707 28.7826 42.2787 27.8906 41.1785 27.8906H35.8594V23.9062H38.5223C39.6225 23.9062 40.5145 23.0143 40.5145 21.9141C40.5145 20.8138 39.6225 19.9219 38.5223 19.9219H35.8594V15.9375H41.1785C42.2787 15.9375 43.1707 15.0455 43.1707 13.9453C43.1707 12.8451 42.2787 11.9531 41.1785 11.9531H35.8594V7.96875H38.5223C39.6225 7.96875 40.5145 7.07678 40.5145 5.97656C40.5145 4.87634 39.6225 3.98438 38.5223 3.98438H35.8594V1.99219C35.8594 0.891969 34.9674 0 33.8672 0C32.767 0 31.875 0.891969 31.875 1.99219V60.0312H24.6821L25.7778 42.5H25.9051C27.0053 42.5 27.8973 41.608 27.8973 40.5078V27.2232C27.8973 22.8007 24.9982 19.0441 21.0014 17.7493C22.7475 16.7048 23.9195 14.7956 23.9195 12.6172C23.9195 9.32171 21.2384 6.64062 17.943 6.64062C14.6475 6.64062 11.9664 9.32171 11.9664 12.6172C11.9664 14.7946 13.1373 16.703 14.882 17.7479C10.8831 19.0415 7.98203 22.7991 7.98203 27.2232V40.5078C7.98203 41.608 8.874 42.5 9.97422 42.5H10.0948L11.1905 60.0312H1.99219C0.891969 60.0312 0 60.9232 0 62.0234V66.0078C0 67.108 0.891969 68 1.99219 68C3.09241 68 3.98438 67.108 3.98438 66.0078V64.0156H39.8438V66.0078C39.8438 67.108 40.7357 68 41.8359 68C42.9362 68 43.8281 67.108 43.8281 66.0078V62.0234C43.8281 60.9232 42.9362 60.0312 41.8359 60.0312ZM17.943 10.625C19.0415 10.625 19.9352 11.5187 19.9352 12.6172C19.9352 13.7157 19.0415 14.6094 17.943 14.6094C16.8445 14.6094 15.9508 13.7157 15.9508 12.6172C15.9508 11.5187 16.8443 10.625 17.943 10.625ZM11.9664 27.2232C11.9664 23.9296 14.646 21.25 17.9398 21.25C21.2334 21.25 23.913 23.9296 23.913 27.2232V38.5156H11.9664V27.2232ZM14.0869 42.5H21.7856L20.6899 60.0312H15.1826L14.0869 42.5Z"/>
</symbol>

<symbol id="strong" viewBox="0 0 64 64">
    <path d="M33.875 30.1811V19.8166H38.025C47.9181 19.8166 55.9666 11.768 55.9666 1.875C55.9666 0.8395 55.1271 0 54.0916 0H48.0646C41.0369 0 34.9411 4.06275 31.9996 9.96225C29.0576 4.06262 22.9615 0 15.9334 0H9.90837C8.87288 0 8.03337 0.8395 8.03337 1.875C8.03337 11.7681 16.082 19.8166 25.975 19.8166H30.125V30.1811C13.3249 31.1521 0 45.0815 0 62.125C0 63.1605 0.8395 64 1.875 64H62.125C63.1605 64 64 63.1605 64 62.125C64 45.0815 50.6751 31.1521 33.875 30.1811ZM48.0646 3.75H52.0933C51.1726 10.692 45.2145 16.0666 38.025 16.0666H33.9981C34.9174 9.12425 40.8751 3.75 48.0646 3.75ZM25.975 16.0666C18.7854 16.0666 12.8272 10.692 11.9067 3.75H15.9334C23.123 3.75 29.0811 9.12463 30.0016 16.0666H25.975ZM3.8105 60.25C4.7385 45.9209 15.2449 38.245 22.0917 35.6657V40.3778C22.0917 40.9499 21.8689 41.4879 21.4641 41.8926L15.4391 47.9176C13.1423 50.2145 13.1423 53.9519 15.4391 56.2487L19.44 60.25H3.8105ZM24.7434 60.25L18.0906 53.5973C17.2543 52.7609 17.2534 51.4065 18.0906 50.5692L24.1156 44.5444C25.2288 43.4314 25.8417 41.9516 25.8417 40.3778V34.5489C27.8536 34.1014 29.9191 33.875 32 33.875C36.9144 33.875 41.6772 35.1336 45.9062 37.5337L35.5223 47.9178C33.2226 50.2174 33.2178 53.9449 35.5223 56.2489L39.5234 60.25H24.7434ZM44.8266 60.25L38.1739 53.5971C37.3382 52.7616 37.3371 51.4062 38.1739 50.5692L49.1001 39.6431C55.6121 44.6034 59.6477 52.1131 60.1879 60.2499H44.8266V60.25Z"/>
</symbol>

<symbol id="unique" viewBox="0 0 68 68">
    <path d="M67.58 64.7842C67.4752 64.6494 64.9503 61.4478 59.6006 58.2906C56.9903 56.75 53.3914 55.0512 48.7861 53.8092C49.7611 50.514 50.8711 45.7687 51.3499 40.1027C51.8914 33.6964 51.5072 27.4363 50.2076 21.4964C48.5791 14.0532 45.5041 7.10361 41.0679 0.840703C40.6944 0.313437 40.0884 0 39.4422 0C38.7961 0 38.1901 0.313305 37.8166 0.840703C36.4181 2.81509 35.155 4.85802 34.0297 6.96283C32.9044 4.85788 31.6415 2.81509 30.2428 0.840703C29.8694 0.313437 29.2633 0 28.6172 0C27.9711 0 27.3651 0.313305 26.9916 0.840703C22.5554 7.10348 19.4804 14.053 17.8518 21.4965C16.5523 27.4364 16.168 33.6964 16.7095 40.1029C17.2019 45.9283 18.3614 50.7807 19.3554 54.0843C15.1095 55.2884 11.6855 56.8436 9.12061 58.2632C3.46718 61.3926 0.622734 64.5502 0.504398 64.683C-0.0175553 65.2692 -0.146649 66.1072 0.174492 66.8232C0.495632 67.5391 1.20737 68 1.99216 68H66.0078C66.7688 68 67.4633 67.5664 67.7976 66.8828C68.1317 66.1992 68.0474 65.3849 67.58 64.7842ZM20.9628 26.9581L34.3264 17.8771C34.7222 19.1401 35.0719 20.4201 35.3722 21.7176L20.5296 31.8038C20.6034 30.2441 20.7425 28.6243 20.9628 26.9581ZM21.9738 21.4539C23.1906 16.3163 25.2642 10.9068 28.6188 5.57441C30.3273 8.279 31.7667 11.0904 32.9405 14.0015L21.9738 21.4539ZM20.4961 36.6438L36.179 25.9865C36.8241 30.3597 36.9548 34.9112 36.5666 39.6274C36.1538 44.6411 35.1975 48.9293 34.323 52.0159C30.2386 52.0394 26.5399 52.4701 23.2384 53.1424C22.2965 50.0504 21.1538 45.3767 20.6797 39.7673C20.5957 38.7749 20.5323 37.7314 20.4961 36.6438ZM34.6735 55.9971C45.4742 55.9971 52.9886 59.0514 57.3905 61.6136C58.8019 62.4352 59.9934 63.2602 60.9717 64.0156H7.43402C12.1776 60.6701 21.2129 55.9971 34.6735 55.9971ZM39.444 5.57441C45.7576 15.5693 48.4302 27.0098 47.3915 39.6274C46.9364 45.1541 45.8212 49.7995 44.8829 52.9247C42.8862 52.5547 40.7358 52.2795 38.4326 52.133C39.2726 48.9847 40.1222 44.8692 40.5251 40.1029C41.0665 33.6965 40.6823 27.4364 39.3827 21.4965C38.6317 18.0636 37.5721 14.7359 36.214 11.532C37.1285 9.54749 38.1975 7.55557 39.444 5.57441Z"/>
</symbol>

</svg>